<?xml version="1.0" standalone="no"?>
<svg xmlns="http://www.w3.org/2000/svg" width="25" height="25"><rect width="25" height="25" opacity="0"></rect><g mask="url(#hms_mask_0)"><path d="M18.11 21.39L18.11 20.58Q18.09 18.87 17.43 17.31Q16.77 15.75 15.52 14.58Q14.44 13.54 12.98 12.51Q14.54 11.43 15.52 10.45Q16.77 9.27 17.43 7.74Q18.09 6.2 18.11 4.47L18.11 3.39L19.12 3.39Q19.43 3.39 19.65 3.18Q19.86 2.96 19.86 2.65Q19.86 2.34 19.65 2.11Q19.43 1.88 19.12 1.88L4.12 1.88Q3.81 1.88 3.58 2.11Q3.35 2.34 3.35 2.65Q3.35 2.96 3.58 3.18Q3.81 3.39 4.12 3.39L5.1 3.39L5.1 4.47Q5.1 6.18 5.76 7.72Q6.42 9.27 7.67 10.45Q8.8 11.55 10.24 12.51Q8.8 13.52 7.67 14.58Q6.42 15.75 5.76 17.31Q5.1 18.87 5.1 20.58L5.1 21.39L4.12 21.39Q3.81 21.39 3.58 21.61Q3.35 21.82 3.35 22.14Q3.35 22.45 3.58 22.66Q3.81 22.88 4.12 22.88L19.12 22.88Q19.43 22.88 19.65 22.66Q19.86 22.45 19.86 22.14Q19.86 21.82 19.65 21.61Q19.43 21.39 19.12 21.39Z" fill="rgba(0,0,0,0.9019607843137255)"></path></g><defs><mask id="hms_mask_0"><rect width="25" height="25" fill="#ffffff"></rect><g><path d="M18.45 14Q17.01 14 15.8 14.71Q14.58 15.42 13.86 16.63Q13.14 17.84 13.14 19.28Q13.14 20.72 13.85 21.94Q14.56 23.17 15.78 23.89Q17.01 24.61 18.45 24.61Q19.89 24.61 21.11 23.89Q22.34 23.17 23.04 21.94Q23.75 20.72 23.75 19.28Q23.75 17.84 23.03 16.63Q22.31 15.42 21.1 14.71Q19.89 14 18.45 14Z" fill="#000000"></path></g></mask></defs><g><path d="M21.64 19.11L22.12 18.49Q22.22 18.34 22.23 18.16Q22.24 17.98 22.17 17.84L21.57 16.83Q21.47 16.69 21.33 16.62Q21.18 16.54 20.99 16.57L20.22 16.64L20.08 16.54Q19.96 16.47 19.84 16.42L19.55 15.73Q19.5 15.58 19.35 15.49Q19.19 15.39 19.02 15.39L17.87 15.39Q17.68 15.39 17.54 15.49Q17.39 15.58 17.3 15.73L17.01 16.42L16.82 16.54L16.62 16.64L15.86 16.54Q15.69 16.52 15.53 16.59Q15.38 16.66 15.28 16.83L14.68 17.84Q14.61 17.98 14.62 18.15Q14.63 18.32 14.73 18.44L15.21 19.09L15.21 19.5L14.73 20.17Q14.63 20.26 14.62 20.41Q14.61 20.55 14.66 20.7Q14.66 20.72 14.66 20.73Q14.66 20.74 14.68 20.77L15.28 21.78Q15.47 22.14 15.86 22.06L16.62 21.97L16.77 22.06Q16.89 22.14 17.01 22.18L17.3 22.88Q17.34 23.05 17.5 23.13Q17.66 23.22 17.82 23.22L18.98 23.22Q19.38 23.22 19.55 22.88L19.84 22.21Q20.03 22.11 20.22 21.99L20.97 22.06Q21.35 22.14 21.52 21.8L22.12 20.79Q22.22 20.62 22.2 20.44Q22.19 20.26 22.1 20.17L21.64 19.52ZM18.42 18.22Q17.97 18.22 17.66 18.54Q17.34 18.85 17.34 19.3Q17.34 19.76 17.66 20.1Q17.97 20.43 18.42 20.43Q18.88 20.43 19.22 20.1Q19.55 19.76 19.55 19.3Q19.55 18.85 19.23 18.54Q18.9 18.22 18.42 18.22ZM18.42 17.5Q19.17 17.5 19.71 18.04Q20.25 18.58 20.25 19.3Q20.25 20.05 19.72 20.59Q19.19 21.13 18.42 21.13Q17.7 21.13 17.16 20.59Q16.62 20.05 16.62 19.3Q16.62 18.58 17.16 18.04Q17.7 17.5 18.42 17.5Z" fill="rgba(0,0,0,0.9019607843137255)"></path></g></svg>