<?xml version="1.0" standalone="no"?>
<svg xmlns="http://www.w3.org/2000/svg" width="24" height="24"><rect width="24" height="24" opacity="0"></rect><g><path d="M8.76 7.34Q8.76 6.89 8.38 6.7Q7.99 6.5 7.62 6.7Q7.25 6.89 7.25 7.34L7.25 14.54Q6.7 14.76 6.35 15.3Q6 15.84 6 16.46Q6 17.28 6.59 17.87Q7.18 18.46 8.02 18.46Q8.83 18.46 9.42 17.87Q10.01 17.28 10.01 16.46Q10.01 15.84 9.66 15.35Q9.31 14.86 8.74 14.62L8.76 7.34ZM13.75 11.26Q13.75 12.12 14.17 12.85Q14.59 13.58 15.32 14Q16.06 14.42 16.92 14.42Q17.78 14.42 18.52 13.99Q19.25 13.56 19.68 12.84Q20.11 12.12 20.11 11.26Q20.11 10.39 19.68 9.66Q19.25 8.93 18.52 8.5Q17.78 8.06 16.92 8.06Q16.06 8.06 15.34 8.5Q14.62 8.93 14.18 9.66Q13.75 10.39 13.75 11.26ZM16.92 15.34Q16.73 15.34 16.58 15.48Q16.44 15.62 16.44 15.84L16.44 16.94Q16.44 17.14 16.58 17.28Q16.73 17.42 16.92 17.42Q17.11 17.42 17.26 17.28Q17.4 17.14 17.4 16.94L17.4 15.84Q17.4 15.62 17.26 15.48Q17.11 15.34 16.92 15.34ZM12.91 7.85L13.61 8.5Q13.73 8.52 13.84 8.5Q13.94 8.47 14.04 8.38Q14.16 8.23 14.16 8.03Q14.16 7.82 14.04 7.68L12.91 6.7ZM21.31 7.58Q21.43 7.46 21.43 7.22Q21.43 7.06 21.31 6.89Q21.17 6.74 20.95 6.74Q20.74 6.74 20.59 6.89L19.8 7.68Q19.66 7.82 19.66 8.02Q19.66 8.21 19.8 8.38Q19.94 8.52 20.16 8.52Q20.38 8.52 20.52 8.38L21.31 7.58ZM21.5 10.75Q21.29 10.75 21.16 10.9Q21.02 11.04 21.02 11.26Q21.02 11.45 21.16 11.59Q21.29 11.74 21.5 11.74L22.61 11.74Q22.8 11.74 22.96 11.59Q23.11 11.45 23.11 11.26Q23.11 11.06 22.96 10.91Q22.8 10.75 22.61 10.75L21.5 10.75ZM20.52 14.16Q20.38 14.02 20.16 14.02Q19.94 14.02 19.8 14.16Q19.66 14.3 19.66 14.5Q19.66 14.69 19.8 14.86L20.59 15.65Q20.74 15.79 20.95 15.79Q21.17 15.79 21.31 15.65Q21.43 15.5 21.44 15.3Q21.46 15.1 21.31 14.95L20.52 14.16ZM16.92 5.06Q16.73 5.06 16.58 5.21Q16.44 5.35 16.44 5.57L16.44 6.67Q16.44 6.86 16.58 7.01Q16.73 7.15 16.92 7.15Q17.11 7.15 17.26 7.01Q17.4 6.86 17.4 6.67L17.4 5.57Q17.4 5.35 17.26 5.21Q17.11 5.06 16.92 5.06Z" fill="rgba(0,0,0,0.9019607843137255)"></path><path d="M8.02 22.49Q9.65 22.49 11.04 21.68Q12.43 20.88 13.24 19.49Q14.04 18.1 14.04 16.46Q14.04 15.02 13.39 13.75Q12.74 12.48 11.57 11.62L11.57 5.06Q11.57 4.1 11.09 3.28Q10.61 2.45 9.79 1.97Q8.98 1.49 8.02 1.49Q7.06 1.49 6.23 1.97Q5.4 2.45 4.92 3.28Q4.44 4.1 4.44 5.06L4.44 11.62Q3.29 12.48 2.64 13.75Q1.99 15.02 1.99 16.46Q1.99 18.1 2.8 19.49Q3.6 20.88 4.99 21.68Q6.38 22.49 8.02 22.49ZM8.02 3Q8.86 3 9.47 3.6Q10.08 4.2 10.08 5.06L10.08 12.02Q10.08 12.43 10.42 12.65Q11.42 13.27 11.99 14.29Q12.55 15.31 12.55 16.46Q12.55 17.69 11.94 18.73Q11.33 19.78 10.28 20.39Q9.24 21 8.02 21Q6.79 21 5.75 20.39Q4.7 19.78 4.09 18.73Q3.48 17.69 3.48 16.46Q3.48 15.31 4.04 14.29Q4.61 13.27 5.62 12.65Q5.76 12.55 5.86 12.38Q5.95 12.22 5.95 12.02L5.95 5.06Q5.95 4.2 6.56 3.6Q7.18 3 8.02 3Z" fill="rgba(0,0,0,0.9019607843137255)"></path></g></svg>