<?xml version="1.0" standalone="no"?>
<svg xmlns="http://www.w3.org/2000/svg" width="24" height="24"><rect width="24" height="24" opacity="0"></rect><g><path d="M8.76 7.34Q8.76 6.89 8.38 6.7Q7.99 6.5 7.62 6.7Q7.25 6.89 7.25 7.34L7.25 14.54Q6.7 14.76 6.35 15.3Q6 15.84 6 16.46Q6 17.28 6.59 17.87Q7.18 18.46 8.02 18.46Q8.83 18.46 9.42 17.87Q10.01 17.28 10.01 16.46Q10.01 15.84 9.66 15.35Q9.31 14.86 8.74 14.62L8.76 7.34ZM22.01 11.9Q21.91 11.71 21.73 11.64Q21.55 11.57 21.36 11.64L20.02 12.26L17.88 11.04L19.99 9.84L21.36 10.44Q21.53 10.54 21.72 10.46Q21.91 10.39 22.01 10.2Q22.1 10.03 22.03 9.84Q21.96 9.65 21.77 9.55L21.05 9.22L21.72 8.83Q21.91 8.71 21.96 8.52Q22.01 8.33 21.91 8.16Q21.79 7.97 21.6 7.92Q21.41 7.87 21.22 7.97L20.57 8.35L20.64 7.58Q20.66 7.39 20.53 7.24Q20.4 7.08 20.18 7.06Q19.99 7.03 19.84 7.16Q19.68 7.3 19.66 7.51L19.51 8.98L17.42 10.18L17.42 7.75L18.62 6.89Q18.77 6.77 18.8 6.56Q18.84 6.36 18.72 6.19Q18.6 6.02 18.41 5.99Q18.22 5.95 18.05 6.07L17.42 6.53L17.42 5.78Q17.42 5.59 17.27 5.45Q17.11 5.3 16.92 5.3Q16.7 5.3 16.56 5.45Q16.42 5.59 16.42 5.78L16.42 6.53L15.77 6.07Q15.6 5.95 15.4 5.99Q15.19 6.02 15.07 6.19Q14.98 6.36 15.01 6.56Q15.05 6.77 15.19 6.89L16.42 7.75L16.42 10.2L14.3 8.98L14.16 7.49Q14.14 7.3 13.97 7.16Q13.8 7.03 13.61 7.06Q13.42 7.08 13.28 7.24Q13.15 7.39 13.18 7.58L13.32 8.98L12.31 9.38L12.31 10.46L13.8 9.84L15.91 11.04L13.8 12.26L13.18 11.98L13.03 12.07Q13.58 12.7 13.76 13.01Q13.94 13.32 14.11 13.9L14.3 13.13L16.44 11.9L16.44 14.33L15.22 15.19Q15.02 15.34 15.04 15.56Q15.05 15.79 15.17 15.96Q15.26 16.1 15.44 16.12Q15.62 16.13 15.79 16.01L16.44 15.55L16.44 16.34Q16.44 16.54 16.58 16.68Q16.73 16.82 16.92 16.82Q17.11 16.82 17.27 16.68Q17.42 16.54 17.42 16.34L17.42 15.55L18.05 16.01Q18.22 16.13 18.42 16.09Q18.62 16.06 18.74 15.89Q18.86 15.72 18.83 15.52Q18.79 15.31 18.62 15.19L17.42 14.33L17.42 11.93L19.51 13.13L19.66 14.62Q19.68 14.81 19.84 14.94Q19.99 15.07 20.21 15.05Q20.4 15.02 20.53 14.87Q20.66 14.71 20.64 14.52L20.57 13.73L21.26 14.14Q21.46 14.23 21.65 14.17Q21.84 14.11 21.94 13.94Q22.03 13.75 21.97 13.56Q21.91 13.37 21.74 13.27L21.07 12.89L21.77 12.55Q21.96 12.48 22.03 12.28Q22.1 12.07 22.01 11.9Z" fill="rgba(0,0,0,0.9019607843137255)"></path><path d="M8.02 22.49Q9.65 22.49 11.04 21.68Q12.43 20.88 13.24 19.49Q14.04 18.1 14.04 16.46Q14.04 15.02 13.39 13.75Q12.74 12.48 11.57 11.62L11.57 5.06Q11.57 4.1 11.09 3.28Q10.61 2.45 9.79 1.97Q8.98 1.49 8.02 1.49Q7.06 1.49 6.23 1.97Q5.4 2.45 4.92 3.28Q4.44 4.1 4.44 5.06L4.44 11.62Q3.29 12.48 2.64 13.75Q1.99 15.02 1.99 16.46Q1.99 18.1 2.8 19.49Q3.6 20.88 4.99 21.68Q6.38 22.49 8.02 22.49ZM8.02 3Q8.86 3 9.47 3.6Q10.08 4.2 10.08 5.06L10.08 12.02Q10.08 12.43 10.42 12.65Q11.42 13.27 11.99 14.29Q12.55 15.31 12.55 16.46Q12.55 17.69 11.94 18.73Q11.33 19.78 10.28 20.39Q9.24 21 8.02 21Q6.79 21 5.75 20.39Q4.7 19.78 4.09 18.73Q3.48 17.69 3.48 16.46Q3.48 15.31 4.04 14.29Q4.61 13.27 5.62 12.65Q5.76 12.55 5.86 12.38Q5.95 12.22 5.95 12.02L5.95 5.06Q5.95 4.2 6.56 3.6Q7.18 3 8.02 3Z" fill="rgba(0,0,0,0.9019607843137255)"></path></g></svg>