<?xml version="1.0" standalone="no"?>
<svg xmlns="http://www.w3.org/2000/svg" width="24" height="24"><rect width="24" height="24" opacity="0"></rect><g><path d="M11.52 8.95Q11.95 8.23 12.67 8.1Q13.39 7.97 13.94 8.44Q14.5 8.9 14.5 9.79L14.45 12.74Q15.24 12.74 15.68 13.09Q16.13 13.44 16.24 13.96Q16.34 14.47 16.18 14.93Q17.59 14.93 18.61 14.28Q19.63 13.63 20.15 12.64Q20.66 11.64 20.66 10.63Q20.66 9.46 20.08 8.47Q19.49 7.49 18.48 6.91Q17.47 6.34 16.27 6.34Q15.84 6.34 15.41 6.42Q14.98 6.5 14.57 6.67Q13.85 5.18 12.42 4.28Q10.99 3.38 9.26 3.38Q7.68 3.38 6.34 4.16Q4.99 4.94 4.2 6.28Q3.41 7.61 3.41 9.17Q3.41 10.51 4.01 11.7Q4.61 12.89 5.65 13.7Q6.7 14.52 8.02 14.81L11.52 8.95Z" fill="rgba(0,0,0,0.9019607843137255)"></path><path d="M13.13 14.04L13.18 9.77Q13.18 9.62 13.09 9.54Q13.01 9.46 12.88 9.47Q12.74 9.48 12.65 9.62L9.12 15.53Q9.07 15.62 9.08 15.73Q9.1 15.84 9.18 15.91Q9.26 15.98 9.38 15.98L10.97 15.98L10.9 20.26Q10.9 20.4 11 20.48Q11.11 20.57 11.26 20.54Q11.4 20.52 11.45 20.4L14.95 14.5Q15 14.4 14.99 14.29Q14.98 14.18 14.89 14.11Q14.81 14.04 14.69 14.04ZM3.43 19.49Q3.12 20.02 3.35 20.36Q3.58 20.71 4.02 20.69Q4.46 20.66 4.7 20.28L5.88 18.29Q6.17 17.81 5.94 17.47Q5.71 17.14 5.27 17.12Q4.82 17.11 4.58 17.52L3.43 19.49ZM6.55 19.44Q6.24 19.97 6.47 20.32Q6.7 20.66 7.14 20.64Q7.58 20.62 7.82 20.23L9 18.24Q9.29 17.76 9.06 17.42Q8.83 17.09 8.39 17.08Q7.94 17.06 7.7 17.47L6.55 19.44ZM14.26 19.44Q13.94 19.97 14.17 20.32Q14.4 20.66 14.84 20.64Q15.29 20.62 15.53 20.23L16.7 18.24Q16.99 17.76 16.76 17.42Q16.54 17.09 16.09 17.08Q15.65 17.06 15.41 17.47L14.26 19.44ZM17.3 19.44Q16.99 19.97 17.22 20.32Q17.45 20.66 17.89 20.64Q18.34 20.62 18.58 20.23L19.75 18.24Q20.04 17.76 19.81 17.42Q19.58 17.09 19.14 17.08Q18.7 17.06 18.46 17.47L17.3 19.44Z" fill="rgba(0,0,0,0.9019607843137255)"></path></g></svg>