<?xml version="1.0" standalone="no"?>
<svg xmlns="http://www.w3.org/2000/svg" width="24" height="24"><rect width="24" height="24" opacity="0"></rect><g><path d="M21.24 7.27Q19.01 5.23 16.63 4.49Q14.26 3.74 12.12 4.07Q9.98 4.39 8.23 5.45Q6.6 6.48 5.64 8.21Q4.68 9.94 4.68 12Q4.68 13.63 5.4 15.31Q4.34 15.36 3.94 15.24Q3.82 15.22 3.77 15.22Q3.72 15.22 3.6 15.19Q3.36 15.17 3.16 15.23Q2.95 15.29 2.81 15.41Q2.5 15.77 2.51 16.1Q2.52 16.44 2.76 16.7Q5.74 19.44 9.11 19.92Q12.48 20.4 15.77 18.55Q17.4 17.52 18.36 15.79Q19.32 14.06 19.32 12Q19.32 10.27 18.6 8.69Q19.3 8.66 19.6 8.68Q19.9 8.69 20.14 8.76L20.42 8.81Q20.66 8.83 20.87 8.76Q21.07 8.69 21.22 8.57Q21.53 8.21 21.5 7.87Q21.48 7.54 21.24 7.27ZM12 14.64Q10.9 14.64 10.12 13.86Q9.34 13.08 9.34 11.98Q9.34 10.87 10.12 10.09Q10.9 9.31 12 9.31Q13.1 9.31 13.88 10.09Q14.66 10.87 14.66 11.98Q14.66 13.08 13.88 13.86Q13.1 14.64 12 14.64Z" fill="rgba(0,0,0,0.9019607843137255)"></path></g></svg>